<svg width="50" height="50" viewBox="0 0 50 50" fill="none" xmlns="http://www.w3.org/2000/svg">
<circle cx="25" cy="25" r="25" fill="black"/>
<path d="M32.09 17.89C32.09 17.09 31.83 16.51 31.31 16.15C30.79 15.79 29.97 15.61 28.85 15.61C25.93 15.61 23.09 16.1 20.33 17.08V16.9C20.35 16.48 20.31 16.19 20.21 16.03C20.13 15.85 19.95 15.74 19.67 15.7C19.41 15.64 18.96 15.61 18.32 15.61C17.08 15.61 15.8 15.8 14.48 16.18C14.42 16.36 14.39 16.53 14.39 16.69C14.39 16.93 14.43 17.12 14.51 17.26L16.4 17.2C16.62 17.2 16.73 17.75 16.73 18.85V36.1C16.71 36.52 16.74 36.82 16.82 37C16.92 37.16 17.1 37.26 17.36 37.3C17.64 37.36 18.1 37.39 18.74 37.39C19.98 37.39 21.26 37.2 22.58 36.82C22.64 36.64 22.67 36.47 22.67 36.31C22.67 36.07 22.63 35.88 22.55 35.74L20.66 35.8C20.44 35.8 20.33 35.25 20.33 34.15V18.58C22.77 17.92 24.71 17.59 26.15 17.59C27.07 17.59 27.69 17.72 28.01 17.98C28.33 18.24 28.49 18.76 28.49 19.54V36.1C28.47 36.52 28.5 36.82 28.58 37C28.68 37.16 28.86 37.26 29.12 37.3C29.4 37.36 29.86 37.39 30.5 37.39C31.74 37.39 33.02 37.2 34.34 36.82C34.4 36.64 34.43 36.47 34.43 36.31C34.43 36.07 34.39 35.88 34.31 35.74L32.42 35.8C32.2 35.8 32.09 35.25 32.09 34.15V17.89Z" fill="white"/>
</svg>
